<svg width="9" height="8" viewBox="0 0 9 8" fill="none" xmlns="http://www.w3.org/2000/svg">
<path d="M5.15845 1.13187L5.15868 1.13164C5.84285 0.432649 6.91767 0.348277 7.61612 0.93736C8.44733 1.63982 8.49233 2.90466 7.74629 3.66698L7.74619 3.66708L4.49277 6.99336C4.49274 6.99339 4.49272 6.99341 4.49269 6.99344C4.48791 6.99831 4.48386 7.00061 4.48073 7.00191C4.47724 7.00335 4.47336 7.00415 4.46928 7.00415C4.4652 7.00415 4.46132 7.00335 4.45784 7.00191C4.45471 7.00062 4.45067 6.99831 4.44589 6.99346C4.44586 6.99342 4.44583 6.99339 4.4458 6.99336L1.19259 3.6673C1.19255 3.66726 1.19251 3.66722 1.19247 3.66718C1.19244 3.66715 1.19241 3.66711 1.19238 3.66708C0.447895 2.90476 0.492939 1.63994 1.32399 0.93748C2.02263 0.3481 3.09899 0.432889 3.78122 1.13128L3.7818 1.13187L4.11303 1.46983L4.47012 1.83418L4.82722 1.46983L5.15845 1.13187Z" stroke="#001D3D" stroke-opacity="0.7"/>
</svg>
