<svg width="20" height="18" viewBox="0 0 20 18" fill="none" xmlns="http://www.w3.org/2000/svg">
<path d="M6.42857 3.21429C6.42857 4.98949 4.98949 6.42857 3.21429 6.42857C1.43908 6.42857 0 4.98949 0 3.21429C0 1.43908 1.43908 0 3.21429 0C4.98949 0 6.42857 1.43908 6.42857 3.21429Z" fill="black"/>
<path d="M19.2858 3.21429C19.2858 4.98949 17.8467 6.42857 16.0715 6.42857C14.2963 6.42857 12.8572 4.98949 12.8572 3.21429C12.8572 1.43908 14.2963 0 16.0715 0C17.8467 0 19.2858 1.43908 19.2858 3.21429Z" fill="black"/>
<path d="M19.2858 14.7857C19.2858 16.5609 17.8467 18 16.0715 18C14.2963 18 12.8572 16.5609 12.8572 14.7857C12.8572 13.0105 14.2963 11.5714 16.0715 11.5714C17.8467 11.5714 19.2858 13.0105 19.2858 14.7857Z" fill="black"/>
<path d="M6.42857 14.7857C6.42857 16.5609 4.98949 18 3.21429 18C1.43908 18 0 16.5609 0 14.7857C0 13.0105 1.43908 11.5714 3.21429 11.5714C4.98949 11.5714 6.42857 13.0105 6.42857 14.7857Z" fill="black"/>
</svg>
